fd_1_states
version=1
nRows=41
nColumns=17
inDegrees=yes

# SIMM Motion File Header:
name fd_1_states
datacolumns 17
datarows 41
otherdata 1
range 0.13955171 0.20424644
endheader
time	/jointset/r_shoulder/r_shoulder_elev/value	/jointset/r_shoulder/r_shoulder_elev/speed	/jointset/r_elbow/r_elbow_flex/value	/jointset/r_elbow/r_elbow_flex/speed	/forceset/TRIlong/activation	/forceset/TRIlong/fiber_length	/forceset/TRIlat/activation	/forceset/TRIlat/fiber_length	/forceset/TRImed/activation	/forceset/TRImed/fiber_length	/forceset/BIClong/activation	/forceset/BIClong/fiber_length	/forceset/BICshort/activation	/forceset/BICshort/fiber_length	/forceset/BRA/activation	/forceset/BRA/fiber_length
      0.13955171	     -0.03236260	     -0.15616468	     19.63256921	    140.42839022	      0.02206168	      0.14391354	      0.02680435	      0.07779229	      0.02484038	      0.07286796	      0.13963285	      0.14300401	      0.05872601	      0.14250117	      0.03370509	      0.08860647
      0.14014450	     -0.03245075	     -0.14140989	     19.71580032	    140.38493388	      0.02204546	      0.14394747	      0.02685326	      0.07782536	      0.02489504	      0.07290136	      0.14013532	      0.14297141	      0.05884093	      0.14247018	      0.03366687	      0.08858707
      0.14073728	     -0.03253038	     -0.12724900	     19.79900627	    140.34304647	      0.02202936	      0.14398140	      0.02690411	      0.07785847	      0.02517347	      0.07293353	      0.14151668	      0.14293859	      0.05908936	      0.14243913	      0.03356128	      0.08856773
      0.14133007	     -0.03260156	     -0.11281339	     19.88218721	    140.30027930	      0.02201340	      0.14401533	      0.02695021	      0.07789161	      0.02544011	      0.07296441	      0.14285499	      0.14290535	      0.05932491	      0.14240795	      0.03345114	      0.08854849
      0.14361871	     -0.03279076	     -0.05062561	     20.20308040	    140.11692006	      0.02195293	      0.14414625	      0.02708745	      0.07802010	      0.02623225	      0.07308318	      0.14707214	      0.14277460	      0.06004036	      0.14228688	      0.03303454	      0.08847479
      0.14590735	     -0.03283205	      0.01423965	     20.52353990	    139.92780519	      0.02189428	      0.14427710	      0.02717730	      0.07814929	      0.02674950	      0.07320467	      0.15011828	      0.14264253	      0.06052504	      0.14216554	      0.03263129	      0.08840165
      0.14945666	     -0.03261800	      0.10255056	     21.01971316	    139.67211919	      0.02180681	      0.14447986	      0.02725934	      0.07835044	      0.02722101	      0.07339884	      0.15327553	      0.14243920	      0.06098711	      0.14197795	      0.03203125	      0.08828880
      0.15012732	     -0.03254448	      0.11650844	     21.11337181	    139.63139060	      0.02179075	      0.14451816	      0.02728948	      0.07838855	      0.02728866	      0.07343602	      0.15383471	      0.14240118	      0.06108715	      0.14194261	      0.03192782	      0.08826754
      0.15062254	     -0.03248436	      0.12627981	     21.18251407	    139.60271103	      0.02177898	      0.14454644	      0.02743906	      0.07841609	      0.02738837	      0.07346329	      0.15499775	      0.14237296	      0.06141541	      0.14191637	      0.03189712	      0.08825182
      0.15111777	     -0.03241941	      0.13606055	     21.25164213	    139.57390817	      0.02176728	      0.14457471	      0.02758691	      0.07844293	      0.02748417	      0.07349032	      0.15615188	      0.14234445	      0.06174020	      0.14188987	      0.03187078	      0.08823606
      0.15359391	     -0.03202011	      0.18749878	     21.59706303	    139.42277831	      0.02170997	      0.14471603	      0.02815298	      0.07857583	      0.02785103	      0.07362577	      0.16086102	      0.14219906	      0.06301057	      0.14175489	      0.03174174	      0.08815691
      0.15607005	     -0.03149923	      0.23080868	     21.94212934	    139.29776590	      0.02165452	      0.14485726	      0.02851105	      0.07871032	      0.02808312	      0.07376239	      0.16420504	      0.14205194	      0.06384591	      0.14161804	      0.03161704	      0.08807756
      0.15927895	     -0.03070407	      0.25844166	     22.38896935	    139.22124443	      0.02158533	      0.14504017	      0.02878728	      0.07888821	      0.02826210	      0.07394179	      0.16715662	      0.14186231	      0.06451970	      0.14144050	      0.03146167	      0.08797481
      0.16005015	     -0.03050439	      0.25902561	     22.49633597	    139.22032182	      0.02156915	      0.14508413	      0.02883942	      0.07893134	      0.02829984	      0.07398501	      0.16773793	      0.14181712	      0.06464221	      0.14139794	      0.03142332	      0.08795014
      0.16055481	     -0.03037383	      0.25832925	     22.56659568	    139.22271989	      0.02155864	      0.14511289	      0.02898061	      0.07895924	      0.02845859	      0.07401289	      0.16880109	      0.14178748	      0.06484456	      0.14137005	      0.03136405	      0.08793402
      0.16132374	     -0.03017567	      0.25718731	     22.67364896	    139.22645450	      0.02154277	      0.14515670	      0.02919726	      0.07900074	      0.02870490	      0.07405414	      0.17045221	      0.14174183	      0.06515159	      0.14132735	      0.03126610	      0.08790954
      0.16376771	     -0.02954596	      0.26034888	     23.01391261	    139.21857404	      0.02149341	      0.14529595	      0.02971313	      0.07913219	      0.02929110	      0.07418484	      0.17468866	      0.14159435	      0.06590122	      0.14119062	      0.03096172	      0.08783216
      0.16621168	     -0.02890389	      0.26429459	     23.35414490	    139.20963349	      0.02144563	      0.14543517	      0.03004207	      0.07926563	      0.02966463	      0.07431748	      0.17774040	      0.14144564	      0.06639887	      0.14105336	      0.03066757	      0.08775514
      0.16964237	     -0.02800913	      0.25270228	     23.83177140	    139.24681685	      0.02138113	      0.14563054	      0.03031340	      0.07945647	      0.02997254	      0.07450764	      0.18065587	      0.14123805	      0.06682924	      0.14086081	      0.03027124	      0.08764731
      0.17015519	     -0.02788063	      0.24832376	     23.90318294	    139.25967150	      0.02137174	      0.14565974	      0.03036410	      0.07948524	      0.03002419	      0.07453624	      0.18111510	      0.14120724	      0.06688031	      0.14083206	      0.03021361	      0.08763121
      0.17066801	     -0.02775452	      0.24352787	     23.97460144	    139.27356903	      0.02136242	      0.14568894	      0.03056858	      0.07951335	      0.03021029	      0.07456430	      0.18242450	      0.14117625	      0.06696460	      0.14080329	      0.03015639	      0.08761511
      0.17118083	     -0.02763080	      0.23911818	     24.04602682	    139.28621291	      0.02135316	      0.14571814	      0.03076406	      0.07954073	      0.03038790	      0.07459176	      0.18370000	      0.14114492	      0.06704422	      0.14077449	      0.03009958	      0.08759902
      0.17327539	     -0.02714182	      0.23064110	     24.33780454	    139.30982137	      0.02131598	      0.14583740	      0.03139591	      0.07965136	      0.03096190	      0.07470330	      0.18809360	      0.14101457	      0.06730711	      0.14065662	      0.02987171	      0.08753332
      0.17536996	     -0.02665877	      0.23129237	     24.62959825	    139.30803201	      0.02127983	      0.14595663	      0.03182614	      0.07976371	      0.03135262	      0.07481643	      0.19142984	      0.14088226	      0.06749253	      0.14053848	      0.02965038	      0.08746768
      0.17901906	     -0.02581904	      0.22489529	     25.13796538	    139.33033916	      0.02121921	      0.14616428	      0.03227478	      0.07996437	      0.03175983	      0.07501768	      0.19546228	      0.14065160	      0.06769484	      0.14033217	      0.02927985	      0.08735344
      0.18012651	     -0.02557397	      0.21711133	     25.29227952	    139.35425113	      0.02120139	      0.14622728	      0.03238370	      0.08002615	      0.03187194	      0.07507951	      0.19648938	      0.14058205	      0.06774415	      0.14026941	      0.02917330	      0.08731880
      0.18062997	     -0.02546579	      0.21266039	     25.36244204	    139.36765908	      0.02119338	      0.14625591	      0.03253383	      0.08005388	      0.03207776	      0.07510702	      0.19755972	      0.14055036	      0.06780530	      0.14024083	      0.02913676	      0.08730305
      0.18113343	     -0.02535982	      0.20838115	     25.43261123	    139.38049594	      0.02118542	      0.14628455	      0.03268212	      0.08008116	      0.03228255	      0.07513385	      0.19863211	      0.14051844	      0.06786595	      0.14021219	      0.02910173	      0.08728729
      0.18327969	     -0.02492666	      0.19760176	     25.73180016	    139.41330940	      0.02115207	      0.14640662	      0.03318132	      0.08019683	      0.03297157	      0.07524735	      0.20249858	      0.14038078	      0.06807440	      0.14008953	      0.02895509	      0.08722002
      0.18542594	     -0.02450789	      0.19284827	     26.03103458	    139.42919525	      0.02111967	      0.14652865	      0.03351879	      0.08031394	      0.03343704	      0.07536265	      0.20543996	      0.14024197	      0.06822027	      0.13996615	      0.02881272	      0.08715272
      0.18810181	     -0.02400515	      0.18063783	     26.40417068	    139.46785090	      0.02108055	      0.14668075	      0.03379099	      0.08046231	      0.03381233	      0.07550943	      0.20815145	      0.14006914	      0.06834247	      0.13981154	      0.02864101	      0.08706885
      0.18968107	     -0.02373092	      0.16547951	     26.62446021	    139.51313187	      0.02105811	      0.14677049	      0.03389940	      0.08055075	      0.03396178	      0.07559713	      0.20937466	      0.13996770	      0.06839285	      0.13971989	      0.02854259	      0.08701937
      0.19119755	     -0.02349435	      0.14662801	     26.83607115	    139.56790348	      0.02103700	      0.14685665	      0.03455585	      0.08063286	      0.03438662	      0.07568015	      0.21248203	      0.13986984	      0.06896583	      0.13963104	      0.02841607	      0.08697192
      0.19271403	     -0.02328259	      0.13403649	     27.04775350	    139.60376359	      0.02101631	      0.14694279	      0.03515068	      0.08071169	      0.03476213	      0.07576177	      0.21542894	      0.13977017	      0.06950219	      0.13954058	      0.02828545	      0.08692459
      0.19533497	     -0.02294645	      0.12356479	     27.41368909	    139.63361425	      0.02098152	      0.14709164	      0.03586095	      0.08085069	      0.03521063	      0.07590481	      0.21937732	      0.13959601	      0.07016291	      0.13938208	      0.02806604	      0.08684293
      0.19886824	     -0.02254671	      0.09770119	     27.90716285	    139.71052440	      0.02093651	      0.14729221	      0.03641349	      0.08104391	      0.03555941	      0.07610100	      0.22303720	      0.13936101	      0.07070124	      0.13916642	      0.02778252	      0.08673303
      0.19985479	     -0.02245665	      0.08432046	     28.04501302	    139.74988059	      0.02092432	      0.14734818	      0.03651447	      0.08109877	      0.03562312	      0.07615633	      0.22380797	      0.13929570	      0.07080335	      0.13910601	      0.02770579	      0.08670237
      0.20026322	     -0.02242353	      0.07778525	     28.10209466	    139.76897766	      0.02091932	      0.14737135	      0.03662079	      0.08112147	      0.03574159	      0.07617915	      0.22432646	      0.13926871	      0.07079890	      0.13908100	      0.02767433	      0.08668968
      0.20067165	     -0.02239313	      0.07111173	     28.15918425	    139.78840460	      0.02091434	      0.14739452	      0.03686141	      0.08114357	      0.03604605	      0.07620112	      0.22528375	      0.13924159	      0.07075957	      0.13905602	      0.02764304	      0.08667699
      0.20245904	     -0.02228554	      0.05353653	     28.40909734	    139.83869841	      0.02089289	      0.14749591	      0.03772786	      0.08123672	      0.03714149	      0.07629252	      0.22895083	      0.13912138	      0.07059033	      0.13894714	      0.02750817	      0.08662147
      0.20424644	     -0.02218750	      0.05973640	     28.65903583	    139.81898528	      0.02087194	      0.14759728	      0.03835504	      0.08133016	      0.03793359	      0.07638421	      0.23190006	      0.13899964	      0.07042569	      0.13883869	      0.02737657	      0.08656597
